# xmcd CD database file
#
# Track frame offsets:
#	150
#	53402
#	87949
#	126134
#	162014
#	193474
#	235829
#	296731
#
# Disc length: 4471 seconds
#
# Revision: 0
# Processed by: cddbd v1.5.2PL0 Copyright (c) Steve Scherf et al.
# Submitted via: CDex 1.70beta2
#
DISCID=6a117508
DTITLE=Ricky Ford Quartet - [Balaena]
DYEAR=1999
DGENRE=Jazz
TTITLE0=Pie Crust
TTITLE1=Cable Waltz
TTITLE2=Blues Work
TTITLE3=Song For Pres
TTITLE4=Blues In Fourths
TTITLE5=Balaena
TTITLE6=Blues A Hoy
TTITLE7=In Walked Bish
EXTD=YEAR: 1999
EXTT0=
EXTT1=
EXTT2=
EXTT3=
EXTT4=
EXTT5=
EXTT6=
EXTT7=
PLAYORDER=
